# xmcd
#
# Track frame offsets:
#	150
#	23072
#	40574
#	57200
#	76119
#	94034
#	111724
#	126609
#	142228
#	157242
#	175682
#	202517
#
# Disc length: 4020 seconds
#
# Revision: 0
# Processed by: cddbd v1.4PL0 Copyright (c) Steve Scherf et al.
# Submitted via: audiograbber 1.82.02
#
DISCID=9f0fb20c
DTITLE=Billy Ray Cyrus - Southern Rain
DYEAR=2000
DGENRE=Country
TTITLE0=Southern Rain
TTITLE1=You Won't Be Lonely Now
TTITLE2=All I'm Thinking About Is You
TTITLE3=We The People
TTITLE4=I Will
TTITLE5=Love You Back
TTITLE6=Burn Down The Trailer Park
TTITLE7=Everywhere I Wanna Be
TTITLE8=Crazy 'Bout You Baby
TTITLE9=Without You
TTITLE10=Hey Elvis
TTITLE11=Data Track
EXTD=
EXTT0=
EXTT1=
EXTT2=
EXTT3=
EXTT4=
EXTT5=
EXTT6=
EXTT7=
EXTT8=
EXTT9=
EXTT10=
EXTT11=
PLAYORDER=
